<svg width="56" height="56" viewBox="0 0 56 56" fill="none" xmlns="http://www.w3.org/2000/svg">
<path d="M28 5.6875C23.587 5.6875 19.2731 6.9961 15.6038 9.44783C11.9346 11.8996 9.07473 15.3843 7.38595 19.4614C5.69717 23.5385 5.25531 28.0248 6.11624 32.353C6.97717 36.6812 9.10223 40.6569 12.2227 43.7773C15.3431 46.8978 19.3189 49.0228 23.6471 49.8838C27.9753 50.7447 32.4616 50.3028 36.5386 48.6141C40.6157 46.9253 44.1004 44.0654 46.5522 40.3962C49.0039 36.7269 50.3125 32.413 50.3125 28C50.3009 22.0859 47.9465 16.4174 43.7646 12.2355C39.5827 8.05355 33.9141 5.69906 28 5.6875ZM28 47.6875C24.1062 47.6875 20.2998 46.5328 17.0622 44.3696C13.8246 42.2063 11.3012 39.1315 9.81113 35.5341C8.32103 31.9367 7.93115 27.9782 8.6908 24.1592C9.45045 20.3402 11.3255 16.8322 14.0788 14.0788C16.8322 11.3255 20.3402 9.45044 24.1592 8.69079C27.9782 7.93114 31.9367 8.32102 35.5341 9.81112C39.1315 11.3012 42.2063 13.8246 44.3696 17.0622C46.5329 20.2998 47.6875 24.1062 47.6875 28C47.6817 33.2197 45.6056 38.2239 41.9148 41.9148C38.2239 45.6056 33.2197 47.6817 28 47.6875ZM37.6688 27.0813C37.7932 27.1997 37.8922 27.3423 37.9599 27.5002C38.0276 27.6581 38.0625 27.8282 38.0625 28C38.0625 28.1718 38.0276 28.3419 37.9599 28.4998C37.8922 28.6577 37.7932 28.8003 37.6688 28.9187L30.2531 36.3562C30.1328 36.4767 29.9894 36.5717 29.8316 36.6356C29.6737 36.6995 29.5046 36.731 29.3344 36.7281C29.1606 36.7327 28.9878 36.7021 28.8261 36.6382C28.6645 36.5743 28.5174 36.4784 28.3938 36.3562C28.1519 36.1072 28.0166 35.7737 28.0166 35.4266C28.0166 35.0794 28.1519 34.7459 28.3938 34.4969L33.5781 29.3125H19.25C18.9019 29.3125 18.5681 29.1742 18.3219 28.9281C18.0758 28.6819 17.9375 28.3481 17.9375 28C17.9375 27.6519 18.0758 27.3181 18.3219 27.0719C18.5681 26.8258 18.9019 26.6875 19.25 26.6875H33.5781L28.3938 21.5031C28.1472 21.2566 28.0087 20.9221 28.0087 20.5734C28.0087 20.2247 28.1472 19.8903 28.3938 19.6438C28.6403 19.3972 28.9747 19.2587 29.3234 19.2587C29.6721 19.2587 30.0066 19.3972 30.2531 19.6438L37.6688 27.0813Z" fill="#F1B33C"/>
</svg>
